<svg xmlns="http://www.w3.org/2000/svg" width="264" height="264" viewBox="0 0 264 264">
    <g fill="none" fill-rule="evenodd">
        <path fill="#FFF" d="M-36-2761h1440V630H-36z"/>
        <g transform="translate(100 100)">
            <circle cx="32.445" cy="32.445" r="29.775" stroke="#FD8C36" stroke-width="3.5"/>
            <path fill="#FD8C36" fill-rule="nonzero" d="M38.437 36.224h-1.273l-.452-.447a10.873 10.873 0 0 0 2.531-6.998c0-5.94-4.69-10.754-10.478-10.754-5.787 0-10.478 4.815-10.478 10.754 0 5.94 4.691 10.754 10.478 10.754 2.595 0 4.981-.976 6.819-2.598l.435.464v1.307l8.06 8.255 2.402-2.465-8.044-8.272zm-9.672 0c-4.014 0-7.254-3.325-7.254-7.445s3.24-7.445 7.254-7.445c4.014 0 7.254 3.326 7.254 7.445 0 4.12-3.24 7.445-7.254 7.445z"/>
            <path d="M13.04 12.64h38.688v39.706H13.04z"/>
        </g>
    </g>
</svg>
