<svg xmlns="http://www.w3.org/2000/svg" width="15" height="16" viewBox="0 0 15 16">
    <g fill="none" fill-rule="evenodd">
        <path fill="#ABABAB" fill-rule="nonzero" d="M10.417 9.784h-.659l-.233-.225a5.393 5.393 0 0 0 1.308-3.525 5.417 5.417 0 1 0-5.416 5.417 5.393 5.393 0 0 0 3.525-1.308l.225.233v.658l4.166 4.159 1.242-1.242-4.158-4.167zm-5 0a3.745 3.745 0 0 1-3.75-3.75 3.745 3.745 0 0 1 3.75-3.75 3.745 3.745 0 0 1 3.75 3.75 3.745 3.745 0 0 1-3.75 3.75z"/>
        <path d="M-2.896-1.882h20v20h-20z"/>
    </g>
</svg>
